<svg width="1920" height="420" viewBox="0 0 1920 420" fill="none" xmlns="http://www.w3.org/2000/svg">
<rect width="1920" height="420" fill="white"/>
<g clip-path="url(#clip0)">
<path d="M1920 368.867L1919.67 363.251V344.414H1918.6L1916.6 309.741L1907.43 309.771L1907.28 286.744L1871.24 287.012L1870.79 221.498L1814.84 221.885L1814.96 238.434L1747.97 238.909L1748.03 246.961L1686.27 247.407L1686.66 305.819L1645.31 306.116L1645.17 283.981L1648.65 280.238L1646.18 277.653L1643.02 274.325L1620.65 274.503L1620.53 259.559L1611.44 259.618L1611.38 250.675L1608.08 250.705C1602.89 230.709 1582.43 215.853 1558.03 216.061C1533.75 216.239 1513.59 231.214 1508.55 251.091L1505.84 251.121L1505.9 259.975L1496.82 260.034L1496.9 274.771L1474.53 274.949L1471.41 278.277L1468.99 280.891L1471.85 283.862L1435.51 284.13L1435.24 247.199L1446.08 247.11L1446.02 239.771L1442.15 239.801L1442.09 233.353L1430.47 233.442L1430.45 228.837L1356.36 229.372L1355.94 170.365L1352.96 170.395L1353.38 229.402L1320.49 229.639L1317.43 233.353L1301.93 233.472L1267.23 255.785L1237.02 255.072L1236.96 246.812L1199.4 247.08L1199.34 236.651H1199.31L1199.34 236.621C1199.34 235.492 1194.6 234.601 1188.74 234.66C1182.9 234.69 1178.16 235.641 1178.16 236.77C1178.16 236.948 1178.31 237.097 1178.49 237.245L1178.55 247.228L1161.84 247.347L1161.75 232.64L1123.8 232.907L1123.59 204.414L1124.3 202.988L1125.29 199.066C1125.29 199.066 1128.56 196.957 1126.54 195.739C1124.51 194.55 1126 189.737 1122.19 187.063C1118.37 184.389 1115.84 182.606 1115.84 182.606L1116.26 169.385L1116.8 166.384C1116.8 166.384 1121.08 165.76 1118.79 163.056C1116.5 160.382 1114.2 158.896 1114.2 158.896L1113.4 154.083L1110.09 152.003L1107.56 150.221L1107.53 146.002C1107.53 146.002 1106.67 129.482 1100.77 121.43C1094.9 113.379 1090.85 110.705 1087.54 107.407C1084.24 104.138 1079.92 103.544 1079.92 103.544C1079.92 103.544 1083.7 100.811 1082.66 100.216C1081.64 99.6222 1078.1 98.4635 1078.1 98.4635C1078.1 98.4635 1080.09 96.6511 1079.35 95.7598C1078.58 94.8684 1077.06 94.2742 1077.06 94.2742L1077.8 91.2733L1075.78 90.6791L1075.92 77.1604C1075.92 77.1604 1080.48 76.5365 1078.93 74.1299C1077.41 71.753 1075.12 70.8616 1075.12 70.8616C1075.12 70.8616 1076.64 69.9703 1075.86 69.0492C1075.09 68.1579 1073.6 67.8608 1073.6 67.8608C1073.6 67.8608 1074.35 66.9397 1073.57 65.4542C1073.36 65.0382 1072.92 64.7708 1072.41 64.5331L1072.17 60.7003C1072.17 60.7003 1073.33 59.7793 1073.06 59.1553C1072.8 58.5314 1072.14 58.5611 1072.29 57.7886C1072.41 57.0161 1071.75 57.0161 1071.75 57.0161L1071.1 56.2436L1070.56 55.6197L1070.18 55.1443L1071.69 48.3404L1072.44 46.32L1072.68 44.0025L1072.02 41.8633L1070.71 39.7241L1069.67 37.7334C1069.67 37.7334 1070.44 35.5645 1070.8 33.7224C1071.19 31.8803 1068.57 32.3557 1068.57 32.3557L1067.79 33.9007L1067.43 36.2182L1066.93 37.7632L1065.41 40.8531L1064.75 42.5467L1063.89 47.9542L1064.96 49.4992L1066.54 51.4898L1067.08 53.629L1066.57 56.5705L1065.26 56.8973L1065.14 58.7394C1065.14 58.7394 1064.49 59.3633 1063.98 59.8387C1063.47 60.3141 1065.29 61.2054 1065.29 61.2054L1065.32 64.9788C1065.14 65.1273 1064.96 65.3056 1064.87 65.4839C1064.19 66.8803 1064.75 67.7122 1064.87 67.8311C1064.84 67.8608 1064.81 67.8905 1064.75 67.9202C1064.43 68.0093 1063.26 68.3362 1062.64 69.1087C1062.34 69.4652 1062.4 69.792 1062.58 70.0891C1062.55 70.1188 1062.55 70.1188 1062.52 70.1486C1062.13 70.6537 1061.89 71.2776 1061.69 71.9609C1061 72.4958 1060.26 73.2088 1059.63 74.219C1058.14 76.6256 1062.7 77.1902 1062.7 77.1902L1063.06 90.7088L1061.03 91.3328L1061.8 94.3336C1061.8 94.3336 1060.31 94.9576 1059.54 95.8489C1058.8 96.7699 1060.82 98.5526 1060.82 98.5526C1060.82 98.5526 1057.28 99.7708 1056.29 100.395C1055.28 101.019 1059.09 103.693 1059.09 103.693C1059.09 103.693 1054.8 104.317 1051.53 107.644C1048.25 110.972 1044.23 113.705 1038.48 121.846C1032.73 129.987 1032.07 146.507 1032.07 146.507L1032.1 150.726L1029.57 152.538L1026.3 154.648L1025.58 159.461C1025.58 159.461 1023.32 160.976 1021.05 163.71C1018.79 166.413 1023.11 167.008 1023.11 167.008L1023.64 170.008L1024.24 183.2C1024.24 183.2 1021.71 185.013 1017.95 187.746C1014.17 190.48 1015.72 195.263 1013.72 196.481C1011.73 197.699 1015.01 199.779 1015.01 199.779L1016.05 203.671L1016.79 205.098L1016.97 233.591L979.02 233.858L979.139 248.565L962.041 248.684L961.981 238.256H961.951L961.981 238.226C961.981 237.097 957.244 236.205 951.376 236.265C945.537 236.295 940.801 237.245 940.801 238.374C940.801 238.553 940.95 238.701 941.158 238.85L941.218 248.833L904.041 249.1L904.101 257.36L873.894 258.489L838.892 236.681L823.402 236.8L820.274 233.145L794.417 233.323L794.03 175.654L791.051 175.683L791.438 233.353L710.322 233.947L710.352 238.553L698.734 238.642L698.764 245.059L694.891 245.089L694.951 252.458L705.794 252.368L706.211 312.861L688.1 312.98L688.07 308.256L676.571 308.345L663.792 30.6621H662.749L654.468 0.802207V0.356536L654.378 0L646.365 30.573H645.322L636.922 308.701L624.321 308.79L624.351 313.396L603.2 313.455L602.575 303.947L603.707 302.254L605.673 300.56L603.677 299.253L603.32 289.537L605.852 289.181L606.09 283.476L586.876 283.625L586.757 267.194L589.974 263.302L572.041 263.421L518.897 263.807L462.923 264.223L444.99 264.342L448.267 268.175L448.386 284.605L429.172 284.754L429.5 290.458L432.032 290.756L431.824 300.501L429.857 301.868L431.853 303.531L432.985 305.195L432.538 313.96L407.367 314.02L406.92 248.476L404.388 248.506V247.852L414.159 247.793L414.129 243.901L404.328 243.96L404.298 238.166L351.274 238.553L351.214 229.461L347.341 229.491L347.401 238.582L342.248 238.612L291.725 214.962L291.546 215.051L291.338 179.962C292.738 179.902 294.168 179.902 295.24 180.556C296.551 181.358 296.968 182.844 298.398 183.408C299.947 184.032 301.824 183.527 303.432 184.151C305.19 184.805 306.471 186.736 308.079 187.39C308.199 183.379 307.99 179.308 308.02 175.267C304.564 176.129 300.364 175.832 297.921 172.772C295.508 169.771 294.108 168.553 291.248 168.79V167.632L289.282 167.661L289.61 215.913L237.419 239.385L232.117 239.414L232.057 229.966L228.185 229.996L228.244 239.414L168.815 239.83L168.845 245.624L157.227 245.713L157.257 249.605L168.875 249.516V250.17L166.611 250.199L167.058 314.673L140.009 314.792L139.503 240.187L63.1828 240.722L63.5105 289.389L12.2731 289.775L12.4519 315.149L0 315.178L12.8093 370.62V420.03H1919.67V368.896L1920 368.867Z" fill="#003768"/>
</g>
<defs>
<clipPath id="clip0">
<rect width="1920" height="420" fill="white"/>
</clipPath>
</defs>
</svg>
