<svg width="400" height="433" viewBox="0 0 400 433" fill="none" xmlns="http://www.w3.org/2000/svg">
<path d="M36.0163 358.249L23.9415 432.323H12.0748L0 358.249H9.88887L18.0082 414.785L26.1274 358.249H36.0163Z" fill="white"/>
<path d="M41.7634 432.323V358.249H51.7564V432.323H41.7634Z" fill="white"/>
<path d="M91.4729 412.928V419.737C91.4729 428.128 87.4826 432.323 79.5021 432.323H73.0483C65.0679 432.323 61.0776 428.128 61.0776 419.737V370.835C61.0776 362.444 65.0679 358.249 73.0483 358.249H79.5021C87.4826 358.249 91.4729 362.444 91.4729 370.835V381.255H81.4799V370.835C81.4799 367.947 79.9879 366.502 77.0039 366.502H75.0261C72.3891 366.502 71.0706 367.947 71.0706 370.835V419.737C71.0706 422.625 72.3891 424.07 75.0261 424.07H77.5244C80.1614 424.07 81.4799 422.625 81.4799 419.737V412.928H91.4729Z" fill="white"/>
<path d="M99.2994 432.323V358.249H121.367V366.502H109.292V391.778H121.367V400.032H109.292V424.07H121.367V432.323H99.2994Z" fill="white"/>
<path d="M156.374 394.048C152.627 393.016 150.753 390.196 150.753 385.588V369.082C150.753 361.86 154.397 358.249 161.683 358.249H167.72C175.007 358.249 178.65 361.86 178.65 369.082V377.438H169.282V369.288C169.282 367.431 168.276 366.502 166.263 366.502H163.14C161.128 366.915 160.122 367.844 160.122 369.288V387.342C160.122 389.681 161.163 390.85 163.244 390.85H183.126V398.175H178.65V420.768C178.65 428.472 174.972 432.323 167.616 432.323H160.538C153.182 432.323 149.504 428.472 149.504 420.768V402.92C149.504 397.831 151.794 394.873 156.374 394.048ZM162.724 398.175C160.156 398.175 158.873 399.516 158.873 402.198V421.387C158.873 423.176 159.705 424.07 161.371 424.07H166.68C168.414 424.07 169.282 423.176 169.282 421.387V398.175H162.724Z" fill="white"/>
<path d="M242.068 358.249L229.994 432.323H218.127L206.052 358.249H215.941L224.06 414.785L232.18 358.249H242.068Z" fill="white"/>
<path d="M247.815 432.323V358.249H257.808V432.323H247.815Z" fill="white"/>
<path d="M288.677 432.323L282.119 402.405H276.082V432.323H266.089V358.249H285.658C293.292 358.249 297.109 362.479 297.109 370.939V389.199C297.109 395.664 295.131 399.757 291.175 401.476L298.149 432.323H288.677ZM276.082 393.945H282.64C285.624 393.945 287.116 392.157 287.116 388.58V372.589C287.116 369.013 285.624 367.225 282.64 367.225H276.082V393.945Z" fill="white"/>
<path d="M321.888 366.502V432.323H311.895V366.502H302.318V358.249H331.464V366.502H321.888Z" fill="white"/>
<path d="M368.605 358.249V418.292C368.605 427.646 363.852 432.323 354.344 432.323H351.326C341.888 432.323 337.169 427.612 337.169 418.189V358.249H347.162V418.499C347.162 420.081 347.474 421.284 348.099 422.11C348.793 422.935 349.938 423.348 351.534 423.348H354.032C357.086 423.348 358.612 421.731 358.612 418.499V358.249H368.605Z" fill="white"/>
<path d="M377.932 432.323V358.249H400V366.502H387.925V391.778H400V400.032H387.925V424.07H400V432.323H377.932Z" fill="white"/>
<path d="M187.741 23.7081L175.723 47.7867C135.089 53.7071 123.111 55.6302 122.897 55.8686C122.676 56.107 131.157 64.761 141.735 75.0918L160.968 93.8779C154.093 133.914 152.202 145.969 152.328 146.501C152.471 147.089 161.743 142.639 175.897 135.193C188.738 128.438 199.593 122.915 200.028 122.915C200.463 122.915 211.318 128.438 224.158 135.193C238.32 142.639 247.593 147.089 247.727 146.501C247.854 145.969 245.963 133.914 243.526 119.705L239.087 93.8779C268.899 64.761 277.38 56.107 277.158 55.8686C276.945 55.6302 264.966 53.715 250.544 51.6091L224.324 47.7867C206.104 11.041 200.574 0.209566 200.273 0.00295018C199.98 -0.203665 194.331 10.4688 187.725 23.7081H187.741ZM21.5884 63.8789L21.5488 71.627L91.6539 319.192L158.753 318.771L194.102 194.007L193.714 139.762C160.905 157.174 150.746 162.76 149.987 163.412C149.053 164.215 145.912 174.8 140.429 195.596C135.935 212.642 131.671 228.655 130.943 231.174C130.223 233.693 129.361 235.751 129.036 235.743C128.712 235.735 118.775 196.478 106.963 148.512C95.1509 100.545 85.1822 60.136 84.8104 58.7135L84.1379 56.1308H21.6359L21.5884 63.8789ZM315.696 56.7268C315.514 57.0526 305.49 97.3744 293.417 146.326C281.344 195.278 271.233 235.592 270.956 235.918C270.679 236.244 266.217 220.509 261.042 200.952C255.868 181.395 251.343 164.866 250.995 164.207C250.646 163.555 240.464 157.778 228.367 151.381L206.373 139.746L205.993 194.809L241.216 318.779L308.038 319.176C309.185 315.171 325.032 259.21 343.988 192.227C377.882 72.4693 378.451 70.3237 378.451 63.2908V56.1388C330.071 56.1388 315.878 56.409 315.704 56.7348L315.696 56.7268Z" fill="white"/>
</svg>
